<svg class="main-svg" xmlns="http://www.w3.org/2000/svg" xmlns:xlink="http://www.w3.org/1999/xlink" width="400" height="400" style="" viewBox="0 0 400 400"><rect x="0" y="0" width="400" height="400" style="fill: rgb(255, 255, 255); fill-opacity: 1;"/><defs id="defs-a5e21a"><g class="clips"><clipPath class="plotclip" id="clipa5e21axyplot"><rect width="340" height="290"/></clipPath><clipPath class="axesclip" id="clipa5e21ax"><rect x="30" y="0" width="340" height="400"/></clipPath><clipPath class="axesclip" id="clipa5e21ay"><rect x="0" y="30" width="400" height="290"/></clipPath><clipPath class="axesclip" id="clipa5e21axy"><rect x="30" y="30" width="340" height="290"/></clipPath></g><g class="gradients"/></defs><g class="bglayer"><rect class="bg" x="30" y="30" width="340" height="290" style="fill: rgb(255, 255, 255); fill-opacity: 1; stroke-width: 0;"/></g><g class="layer-below"><g class="imagelayer"/><g class="shapelayer"/></g><g class="cartesianlayer"><g class="subplot xy"><g class="layer-subplot"><g class="shapelayer"/><g class="imagelayer"/></g><g class="gridlayer" transform="translate(30,30)"><path class="xgrid crisp" d="M0,0v290" transform="translate(86.91,0)" style="stroke: rgb(238, 238, 238); stroke-opacity: 1; stroke-width: 1px;"/><path class="xgrid crisp" d="M0,0v290" transform="translate(174.03,0)" style="stroke: rgb(238, 238, 238); stroke-opacity: 1; stroke-width: 1px;"/><path class="xgrid crisp" d="M0,0v290" transform="translate(261.15,0)" style="stroke: rgb(238, 238, 238); stroke-opacity: 1; stroke-width: 1px;"/><path class="ygrid crisp" d="M0,0h340" transform="translate(0,251.62)" style="stroke: rgb(238, 238, 238); stroke-opacity: 1; stroke-width: 1px;"/><path class="ygrid crisp" d="M0,0h340" transform="translate(0,213.23)" style="stroke: rgb(238, 238, 238); stroke-opacity: 1; stroke-width: 1px;"/><path class="ygrid crisp" d="M0,0h340" transform="translate(0,174.85)" style="stroke: rgb(238, 238, 238); stroke-opacity: 1; stroke-width: 1px;"/><path class="ygrid crisp" d="M0,0h340" transform="translate(0,136.47)" style="stroke: rgb(238, 238, 238); stroke-opacity: 1; stroke-width: 1px;"/><path class="ygrid crisp" d="M0,0h340" transform="translate(0,98.09)" style="stroke: rgb(238, 238, 238); stroke-opacity: 1; stroke-width: 1px;"/><path class="ygrid crisp" d="M0,0h340" transform="translate(0,59.7)" style="stroke: rgb(238, 238, 238); stroke-opacity: 1; stroke-width: 1px;"/><path class="ygrid crisp" d="M0,0h340" transform="translate(0,21.32)" style="stroke: rgb(238, 238, 238); stroke-opacity: 1; stroke-width: 1px;"/></g><g class="overgrid"/><g class="zerolinelayer" transform="translate(30,30)"><path class="yzl zl crisp" d="M0,0h340" transform="translate(0,290)" style="stroke: rgb(68, 68, 68); stroke-opacity: 1; stroke-width: 1px;"/></g><g class="overzero"/><path class="xlines-below"/><path class="ylines-below"/><g class="overlines-below"/><g class="xaxislayer-below"/><g class="yaxislayer-below"/><g class="overaxes-below"/><g class="plot" transform="translate(30, 30)" clip-path="url(#clipa5e21axyplot)"><g class="imagelayer"/><g class="maplayer"/><g class="barlayer"/><g class="carpetlayer"/><g class="boxlayer"/><g class="scatterlayer"><g class="trace scatter trace4235a8" style="stroke-miterlimit: 2;"><path class="js-fill js-tozero" d="M340,290L0,290L0,275.01L1.52,251.39L1.74,259.64L2.4,243.15L2.61,252.89L2.83,255.52L3.27,234.53L3.48,248.02L3.7,229.28L4.36,230.78L4.57,232.28L4.79,238.65L5.01,233.78L5.23,222.16L5.66,234.53L5.88,230.03L6.1,221.03L6.32,235.27L6.75,232.65L6.97,220.28L7.41,216.16L7.62,222.16L8.06,211.66L8.28,221.03L8.49,231.9L9.58,214.66L9.8,209.79L10.02,212.41L10.24,207.54L10.45,192.92L11.33,212.04L11.54,204.16L11.98,208.29L12.63,190.67L12.85,200.04L13.07,188.8L13.29,189.17L13.5,206.41L14.81,186.55L15.03,196.67L15.25,197.79L15.46,183.92L16.34,188.8L16.55,183.55L16.77,180.17L16.99,189.55L17.86,170.05L18.08,192.54L18.3,189.92L18.51,174.18L18.95,191.04L19.17,163.68L19.39,181.67L19.82,175.68L20.04,170.8L20.26,176.43L20.47,162.18L20.69,179.43L21.35,174.93L21.56,184.67L22.22,161.81L22.43,167.06L22.65,166.31L22.87,184.67L23.09,165.93L23.31,171.18L23.52,159.93L23.74,176.8L24.18,158.43L24.39,164.06L24.61,150.19L24.83,174.93L25.27,155.06L25.48,162.56L25.92,146.44L26.14,161.43L26.57,140.07L27.01,146.81L27.01,153.56L27.23,162.18L27.44,150.56L27.66,154.31L27.88,147.94L28.1,148.31L28.32,158.81L28.53,144.57L28.75,149.81L28.97,165.93L29.84,140.82L30.06,154.31L30.28,148.31L30.49,170.8L30.71,138.19L31.36,141.94L31.58,144.94L31.8,145.32L32.02,156.19L32.45,135.2L32.89,136.32L33.11,140.07L33.98,131.07L34.2,151.69L34.85,134.07L35.07,139.69L35.29,147.19L35.72,148.69L35.94,131.45L36.16,134.82L36.37,140.44L36.81,123.95L37.03,130.7L37.25,135.57L37.46,137.07L37.68,135.2L37.9,122.08L38.77,140.07L38.99,118.7L39.42,133.7L39.64,126.57L39.86,124.33L40.29,130.32L40.51,129.57L40.73,123.95L40.95,137.82L41.17,133.32L41.38,110.83L41.82,137.82L42.25,124.33L42.47,133.7L43.34,120.2L43.56,127.32L43.78,126.2L44,118.7L44.22,131.07L44.43,117.95L44.65,122.83L44.87,117.2L45.09,114.2L45.3,118.7L45.52,126.2L45.96,110.83L46.39,118.7L46.61,124.33L46.83,123.58L47.05,128.82L47.26,129.2L47.48,121.33L47.92,103.33L48.14,135.2L48.79,107.08L49.01,122.08L49.22,116.08L50.31,97.34L50.53,112.33L50.75,122.45L50.97,109.33L51.19,120.95L51.4,101.09L51.84,128.82L52.06,112.33L52.27,104.83L52.49,120.95L52.93,109.33L53.15,109.71L53.36,112.71L53.58,111.58L53.8,107.08L54.23,116.45L54.45,115.7L54.67,107.46L54.89,102.59L55.11,123.95L55.54,105.21L55.98,112.33L56.19,124.7L57.07,101.84L57.28,110.08L57.5,96.96L57.94,99.21L58.16,108.58L58.37,102.59L58.81,106.33L59.03,113.83L59.9,97.34L60.12,103.33L60.33,95.46L60.77,99.59L60.99,99.59L61.86,112.71L62.08,96.21L62.29,97.34L62.51,105.96L62.73,110.46L62.95,105.21L63.16,105.21L63.38,87.22L63.6,103.33L64.25,101.46L64.47,93.21L64.69,105.96L65.34,102.59L65.56,101.84L65.78,104.83L66,95.09L66.21,107.08L66.87,104.83L67.09,95.46L67.3,96.59L67.52,104.08L67.96,87.97L68.17,111.58L68.39,83.09L69.05,89.47L69.26,103.33L69.92,80.84L70.13,89.47L70.35,95.09L71.01,88.34L71.22,89.09L71.44,96.59L71.66,93.96L71.88,102.59L72.09,85.72L72.53,94.34L72.75,95.84L73.18,99.59L73.4,87.59L73.62,100.71L74.06,98.46L74.27,92.09L75.36,105.21L75.58,85.34L76.67,99.96L76.89,90.97L77.32,76.35L77.54,79.72L77.76,93.59L78.41,87.22L78.63,98.46L79.28,73.72L79.5,89.47L79.72,92.46L79.94,97.34L80.15,80.1L80.37,101.84L80.81,86.47L81.02,73.35L81.24,100.71L81.68,93.59L81.9,81.22L82.55,102.59L82.77,74.47L83.86,91.71L84.07,86.84L84.29,95.84L84.73,95.09L84.95,87.97L85.6,76.72L85.82,80.47L86.03,77.85L86.47,91.71L86.91,89.84L87.12,87.22L87.56,76.35L87.99,77.85L88.21,80.47L88.43,79.35L88.65,68.48L89.52,92.46L89.74,80.84L89.96,88.34L90.17,84.97L90.39,77.1L90.61,77.47L90.83,95.46L91.7,72.97L91.92,87.59L92.57,74.1L93,77.85L93.22,84.59L93.66,87.59L93.88,71.47L94.09,91.71L94.96,77.1L95.18,84.22L95.62,62.85L95.84,72.6L96.05,86.84L96.71,69.97L96.93,81.22L97.14,66.6L97.8,71.85L98.01,68.1L98.67,84.97L98.89,80.84L99.1,71.85L99.32,83.09L99.76,73.72L99.97,68.1L100.19,83.09L100.63,62.85L100.85,76.72L101.06,76.72L101.28,78.97L101.5,79.35L101.72,74.85L102.81,47.49L103.02,54.98L103.24,57.98L103.46,45.61L103.89,42.24L104.33,57.98L104.55,36.99L104.77,53.86L105.2,51.98L105.42,44.86L105.64,55.36L106.07,49.36L106.29,49.73L106.73,46.36L106.94,49.36L107.16,55.73L108.03,48.23L108.25,52.36L108.69,53.48L108.9,42.24L109.12,53.11L109.56,33.24L109.78,50.11L109.99,48.98L110.21,45.24L110.65,50.48L110.86,45.99L111.08,48.98L111.52,46.36L111.74,51.23L112.17,44.11L112.39,47.49L112.61,49.73L113.26,32.49L113.48,54.98L113.91,38.11L114.35,42.99L114.57,47.11L114.79,47.49L115,53.11L115.22,33.62L115.66,52.36L115.87,45.24L116.09,51.61L116.31,47.11L116.53,37.74L116.96,34.74L117.4,54.98L117.62,46.74L118.27,46.36L118.49,54.23L118.71,53.11L119.58,38.49L119.8,51.61L120.88,44.11L121.1,42.24L121.32,42.61L121.54,44.49L121.76,44.49L121.97,50.11L122.19,40.36L122.84,40.74L123.06,39.24L123.72,51.98L123.93,48.98L124.15,45.99L124.37,50.48L124.8,48.23L125.02,42.61L125.46,56.86L125.68,49.73L125.89,42.61L126.11,48.23L126.33,47.86L126.55,38.86L127.2,47.49L127.42,42.24L127.64,47.11L127.85,45.24L128.07,47.86L128.29,37.36L128.73,46.36L129.16,42.99L129.38,41.49L129.6,39.61L129.81,44.86L130.25,45.24L130.47,37.74L130.69,43.36L130.9,35.12L131.12,44.49L131.34,54.23L131.56,31.74L131.99,48.98L132.21,45.99L132.43,37.36L133.08,41.11L133.3,50.11L133.52,51.98L133.73,45.24L134.17,44.49L134.39,51.61L134.61,50.11L134.82,42.99L135.04,49.36L135.48,40.74L135.7,43.36L135.91,50.86L136.13,48.98L136.35,38.11L136.57,47.11L137,38.86L137.22,40.36L137.44,33.99L137.66,43.74L137.87,37.36L138.09,45.99L138.53,48.61L138.74,47.86L138.96,41.86L139.18,35.49L139.4,36.99L139.62,48.23L139.83,45.99L140.05,34.37L140.49,44.86L140.7,31.37L140.92,32.87L141.58,59.48L141.79,41.11L142.01,41.11L142.45,38.11L142.66,43.74L143.1,47.86L143.54,30.99L143.75,49.36L144.63,43.36L144.84,44.86L145.06,42.99L145.5,36.61L145.93,38.86L146.15,44.49L146.37,39.61L146.59,45.99L146.8,40.36L147.02,44.11L147.24,54.23L147.46,37.74L147.67,44.49L147.89,44.11L148.11,36.24L148.33,46.36L148.55,40.74L148.76,45.99L148.98,49.73L149.2,45.99L149.42,37.36L149.85,47.49L150.07,35.12L150.51,50.48L150.72,44.11L150.94,29.49L152.03,48.61L152.25,47.49L152.47,38.86L152.9,48.98L153.12,41.86L153.34,48.23L153.56,51.23L153.77,39.99L154.43,36.24L154.64,50.86L154.86,37.74L155.08,32.49L155.3,50.11L155.52,30.99L155.95,39.99L156.17,41.86L156.39,41.49L156.6,36.24L156.82,48.98L157.48,47.11L157.69,45.99L157.91,41.49L158.13,55.73L159,37.74L159.22,39.24L159.44,42.99L159.87,36.99L160.09,44.11L160.31,39.61L160.53,47.49L160.74,34.74L160.96,48.61L161.18,39.99L161.4,48.61L162.27,29.87L162.49,42.99L162.92,36.99L163.14,39.24L163.36,50.48L163.79,33.24L164.23,39.24L164.45,51.98L164.66,51.23L164.88,42.61L165.1,48.23L165.32,44.11L165.53,38.11L165.75,44.86L166.19,36.99L166.41,40.74L166.84,45.99L167.28,35.12L167.5,33.24L168.15,54.23L168.37,40.74L168.8,48.61L169.02,43.36L169.24,39.99L169.46,40.74L169.67,51.23L170.11,39.24L170.54,42.24L170.76,45.24L170.98,38.49L171.42,42.61L171.63,44.86L172.29,28.37L172.5,37.36L172.72,41.86L172.94,35.87L173.38,41.86L173.59,41.11L173.81,34.74L174.25,39.24L174.47,42.61L174.9,34.74L175.12,39.99L175.34,47.86L175.55,47.86L175.77,39.61L175.99,39.24L176.21,37.36L176.64,36.24L176.86,56.86L177.08,34.74L177.51,44.86L177.73,49.73L178.39,33.24L178.6,39.24L178.82,45.61L179.04,48.61L179.26,38.11L179.69,42.99L179.91,38.49L180.13,33.99L180.78,46.74L181,36.99L181.87,49.73L182.09,46.74L182.74,33.24L182.96,39.24L183.18,40.74L183.61,33.62L183.83,45.61L184.7,42.24L184.92,48.61L185.14,49.36L185.36,44.86L185.79,42.24L186.01,47.86L186.88,35.49L187.1,36.99L187.32,38.86L187.53,55.73L188.62,28.74L188.84,37.74L189.06,29.49L189.28,47.49L189.49,36.61L189.71,33.99L189.93,41.49L190.37,40.74L190.58,37.36L190.8,34.74L191.02,42.24L191.24,29.49L191.67,42.24L191.89,39.61L192.33,37.74L192.54,44.86L192.76,41.11L192.98,40.36L193.2,41.49L193.41,47.86L194.29,38.86L194.5,41.86L194.72,45.24L194.94,37.74L195.37,38.11L195.59,44.11L196.03,32.49L196.25,36.99L196.46,42.99L196.68,42.61L196.9,37.74L197.12,39.61L197.12,33.99L197.34,29.49L197.55,53.11L197.99,37.36L198.21,38.49L198.64,32.49L198.86,34.74L199.08,38.11L199.95,44.49L200.17,35.87L200.38,41.86L200.6,27.62L200.82,23.12L201.47,47.11L201.69,36.24L201.91,31.37L202.56,48.23L202.78,45.61L203,39.24L203.22,28.37L203.43,45.99L203.65,48.98L203.87,35.87L204.52,37.74L204.74,42.99L205.18,47.86L205.39,36.61L205.61,39.61L205.83,51.98L206.05,53.11L206.27,35.49L206.48,35.49L206.7,39.99L206.92,47.86L207.14,37.74L207.35,42.99L207.57,34.74L207.79,32.49L208.01,34.74L208.23,37.36L208.66,34.74L208.88,39.99L209.1,37.36L209.53,40.36L209.75,35.12L210.4,37.36L210.62,32.49L211.06,42.99L211.27,50.48L211.49,29.49L211.93,45.24L212.15,38.11L212.58,33.62L212.8,44.49L213.45,27.62L213.67,37.36L213.89,45.61L214.11,27.99L214.76,32.87L214.98,36.24L215.85,43.74L216.07,39.99L216.5,26.49L216.72,29.87L216.94,37.36L217.37,32.12L217.59,42.24L217.81,49.73L218.03,42.99L218.24,35.87L218.68,32.12L218.9,38.49L219.12,30.24L219.55,38.49L219.77,36.61L220.2,29.49L220.42,40.74L220.64,36.61L220.86,43.36L221.08,40.74L221.29,44.49L221.51,28.74L221.95,38.86L222.17,36.61L222.38,45.24L222.82,42.61L223.04,21.62L224.13,51.61L224.34,33.62L224.78,30.99L225.21,40.74L225.43,34.37L225.65,40.36L226.3,37.74L226.52,39.61L226.74,52.73L227.17,40.74L227.39,37.74L227.83,39.61L228.26,31.74L228.48,34.37L228.92,35.12L229.14,36.61L229.35,38.86L229.57,28.74L229.79,40.74L230.22,28.37L230.44,37.74L230.66,38.11L230.88,40.36L231.1,29.49L231.75,44.11L231.97,32.12L232.84,40.74L233.06,36.24L233.49,44.49L233.71,33.62L233.93,34.37L234.36,31.74L234.58,32.49L234.8,38.49L235.23,37.74L235.67,45.24L235.89,29.87L236.32,43.36L236.54,33.24L236.76,30.24L236.98,39.24L237.19,30.24L237.85,31.74L238.07,43.74L239.37,29.87L239.59,42.99L239.81,35.12L240.24,38.86L240.46,44.49L240.9,29.87L241.55,31.74L241.77,32.49L241.99,26.49L242.2,35.49L242.42,43.74L243.07,23.5L243.29,40.74L243.95,32.49L244.16,27.62L244.82,40.36L245.25,38.11L245.47,36.24L245.69,37.74L245.91,36.24L246.12,28.74L247,40.74L247.21,38.86L247.65,39.24L247.87,29.49L248.08,34.37L248.3,32.49L248.52,41.86L248.96,41.86L249.17,34.74L249.39,35.87L249.61,30.99L250.04,41.49L250.48,38.11L250.7,44.11L251.13,32.12L251.35,34.74L251.57,37.74L251.79,48.98L252.01,34.37L252.22,36.99L252.44,43.36L252.88,29.49L253.31,37.74L253.53,34.37L253.75,33.24L253.97,27.24L254.62,37.74L254.84,36.61L255.05,34.74L255.27,44.86L255.49,31.74L255.71,29.12L255.93,41.11L256.14,24.62L256.58,39.24L256.8,36.24L257.01,39.61L257.45,35.12L257.67,38.86L257.89,39.99L258.1,42.24L258.32,36.61L258.54,29.87L258.98,37.74L259.41,35.49L259.63,34.74L259.85,27.24L260.06,40.36L260.28,42.24L260.72,29.12L260.94,36.99L261.15,42.99L261.81,32.87L262.02,34.37L262.24,38.86L262.68,28.37L263.11,34.37L263.33,35.49L263.55,37.36L263.77,34.74L263.98,34.74L264.2,30.62L264.86,42.24L265.07,23.5L265.29,34.74L265.73,30.24L265.94,26.12L266.16,41.49L266.82,38.11L267.03,33.62L267.25,26.49L267.69,36.24L267.91,45.99L268.12,32.49L268.78,33.24L268.99,33.99L269.21,25.37L269.43,46.74L270.08,27.99L270.52,29.49L270.74,27.99L270.95,28.74L271.17,38.11L271.39,38.11L271.61,31.37L272.04,39.99L272.26,27.99L273.35,41.49L273.57,39.24L274.44,30.24L274.66,39.24L275.31,29.87L275.53,32.49L275.75,32.87L276.4,32.49L276.84,41.11L277.05,34.37L277.27,28.74L277.71,31.74L277.92,43.36L278.58,30.62L278.8,46.74L279.23,27.62L279.67,32.49L279.88,34.74L280.54,36.61L280.76,23.87L280.97,42.99L282.06,32.49L282.28,36.99L282.5,24.62L282.93,36.99L283.15,35.12L283.37,21.25L283.59,38.11L284.02,26.87L284.24,43.36L284.68,25L284.89,31.74L285.11,38.11L285.55,31.37L285.77,32.87L285.98,36.61L286.2,39.61L286.64,36.24L286.85,35.49L287.29,35.87L287.51,19L287.73,25.37L287.94,34.74L288.38,29.12L288.6,31.37L288.81,33.62L289.03,22.75L289.47,30.62L289.69,31.37L289.9,38.86L290.12,29.87L290.34,34.37L290.56,29.49L290.78,28.37L290.99,29.12L291.21,32.49L291.43,30.99L291.65,34.37L291.86,43.74L292.08,26.87L292.74,30.62L292.95,31.37L293.17,28.37L293.39,36.24L293.61,25L294.04,26.49L294.26,35.12L294.48,23.5L294.91,34.37L295.13,29.87L295.35,23.5L295.57,34.37L295.78,31.74L296,30.24L297.09,33.62L297.31,35.87L297.75,30.24L297.96,36.61L298.18,35.49L298.4,26.49L298.62,39.24L298.83,31.74L299.05,31.74L299.49,26.49L299.71,33.99L299.92,38.86L300.14,31.37L300.36,30.24L300.58,34.37L301.01,30.24L301.23,27.62L301.45,21.62L301.67,29.87L301.88,37.74L302.75,25L302.97,33.99L303.41,28.37L303.63,34.74L303.84,30.62L304.06,35.12L304.5,48.23L304.71,33.24L305.37,28.37L305.59,31.37L305.8,32.12L306.02,37.74L306.24,26.87L306.89,27.62L307.11,34.37L307.33,25.74L307.76,31.74L307.98,30.24L308.42,24.25L308.64,39.99L309.51,27.62L309.72,33.62L309.94,26.12L310.16,33.99L310.38,31.74L310.6,37.36L311.03,25.74L311.25,30.62L311.47,35.49L311.68,28.74L312.12,29.12L312.34,33.99L312.99,28.74L313.21,25L313.43,20.87L313.65,41.11L314.08,25.37L314.52,30.62L314.73,29.49L315.17,28.74L315.39,30.62L315.61,27.24L316.04,30.24L316.26,35.87L316.69,36.24L317.35,24.62L317.57,34.37L317.78,29.87L318,37.36L318.22,37.36L318.44,38.86L318.65,34.37L319.31,36.61L319.53,24.25L319.74,42.99L319.96,45.24L320.18,21.25L320.4,38.49L320.83,35.87L321.05,14.5L321.27,31.74L321.92,31.37L322.14,25.74L322.36,25.74L322.58,39.99L323.23,28.74L323.45,29.87L323.66,34.37L323.88,30.24L324.32,34.74L324.54,32.12L324.97,28.74L325.19,38.86L325.41,25.37L325.84,28.37L326.06,42.24L327.15,32.12L327.37,30.62L327.58,28.37L327.8,32.87L328.02,33.24L328.67,19L328.89,27.62L329.11,30.24L329.55,37.74L329.76,22L330.2,16.75L330.63,38.86L330.85,19L331.29,36.99L331.51,32.49L331.72,15.62L331.94,31.74L332.59,26.87L332.81,30.62L333.03,33.99L333.25,27.62L333.47,32.12L333.68,29.87L333.9,30.62L334.12,28.74L334.34,37.74L334.99,21.25L335.21,31.37L335.43,30.24L335.64,37.36L335.86,36.99L336.08,32.12L336.95,22.37L337.17,29.87L337.39,26.87L337.6,39.61L338.91,19.37L339.13,19.37L339.78,33.62L340,27.24" style="fill: rgb(31, 119, 180); fill-opacity: 0.5; stroke-width: 0;"/><path class="js-line" d="M0,275.01L1.52,251.39L1.74,259.64L2.4,243.15L2.61,252.89L2.83,255.52L3.27,234.53L3.48,248.02L3.7,229.28L4.36,230.78L4.57,232.28L4.79,238.65L5.01,233.78L5.23,222.16L5.66,234.53L5.88,230.03L6.1,221.03L6.32,235.27L6.75,232.65L6.97,220.28L7.41,216.16L7.62,222.16L8.06,211.66L8.28,221.03L8.49,231.9L9.58,214.66L9.8,209.79L10.02,212.41L10.24,207.54L10.45,192.92L11.33,212.04L11.54,204.16L11.98,208.29L12.63,190.67L12.85,200.04L13.07,188.8L13.29,189.17L13.5,206.41L14.81,186.55L15.03,196.67L15.25,197.79L15.46,183.92L16.34,188.8L16.55,183.55L16.77,180.17L16.99,189.55L17.86,170.05L18.08,192.54L18.3,189.92L18.51,174.18L18.95,191.04L19.17,163.68L19.39,181.67L19.82,175.68L20.04,170.8L20.26,176.43L20.47,162.18L20.69,179.43L21.35,174.93L21.56,184.67L22.22,161.81L22.43,167.06L22.65,166.31L22.87,184.67L23.09,165.93L23.31,171.18L23.52,159.93L23.74,176.8L24.18,158.43L24.39,164.06L24.61,150.19L24.83,174.93L25.27,155.06L25.48,162.56L25.92,146.44L26.14,161.43L26.57,140.07L27.01,146.81L27.01,153.56L27.23,162.18L27.44,150.56L27.66,154.31L27.88,147.94L28.1,148.31L28.32,158.81L28.53,144.57L28.75,149.81L28.97,165.93L29.84,140.82L30.06,154.31L30.28,148.31L30.49,170.8L30.71,138.19L31.36,141.94L31.58,144.94L31.8,145.32L32.02,156.19L32.45,135.2L32.89,136.32L33.11,140.07L33.98,131.07L34.2,151.69L34.85,134.07L35.07,139.69L35.29,147.19L35.72,148.69L35.94,131.45L36.16,134.82L36.37,140.44L36.81,123.95L37.03,130.7L37.25,135.57L37.46,137.07L37.68,135.2L37.9,122.08L38.77,140.07L38.99,118.7L39.42,133.7L39.64,126.57L39.86,124.33L40.29,130.32L40.51,129.57L40.73,123.95L40.95,137.82L41.17,133.32L41.38,110.83L41.82,137.82L42.25,124.33L42.47,133.7L43.34,120.2L43.56,127.32L43.78,126.2L44,118.7L44.22,131.07L44.43,117.95L44.65,122.83L44.87,117.2L45.09,114.2L45.3,118.7L45.52,126.2L45.96,110.83L46.39,118.7L46.61,124.33L46.83,123.58L47.05,128.82L47.26,129.2L47.48,121.33L47.92,103.33L48.14,135.2L48.79,107.08L49.01,122.08L49.22,116.08L50.31,97.34L50.53,112.33L50.75,122.45L50.97,109.33L51.19,120.95L51.4,101.09L51.84,128.82L52.06,112.33L52.27,104.83L52.49,120.95L52.93,109.33L53.15,109.71L53.36,112.71L53.58,111.58L53.8,107.08L54.23,116.45L54.45,115.7L54.67,107.46L54.89,102.59L55.11,123.95L55.54,105.21L55.98,112.33L56.19,124.7L57.07,101.84L57.28,110.08L57.5,96.96L57.94,99.21L58.16,108.58L58.37,102.59L58.81,106.33L59.03,113.83L59.9,97.34L60.12,103.33L60.33,95.46L60.77,99.59L60.99,99.59L61.86,112.71L62.08,96.21L62.29,97.34L62.51,105.96L62.73,110.46L62.95,105.21L63.16,105.21L63.38,87.22L63.6,103.33L64.25,101.46L64.47,93.21L64.69,105.96L65.34,102.59L65.56,101.84L65.78,104.83L66,95.09L66.21,107.08L66.87,104.83L67.09,95.46L67.3,96.59L67.52,104.08L67.96,87.97L68.17,111.58L68.39,83.09L69.05,89.47L69.26,103.33L69.92,80.84L70.13,89.47L70.35,95.09L71.01,88.34L71.22,89.09L71.44,96.59L71.66,93.96L71.88,102.59L72.09,85.72L72.53,94.34L72.75,95.84L73.18,99.59L73.4,87.59L73.62,100.71L74.06,98.46L74.27,92.09L75.36,105.21L75.58,85.34L76.67,99.96L76.89,90.97L77.32,76.35L77.54,79.72L77.76,93.59L78.41,87.22L78.63,98.46L79.28,73.72L79.5,89.47L79.72,92.46L79.94,97.34L80.15,80.1L80.37,101.84L80.81,86.47L81.02,73.35L81.24,100.71L81.68,93.59L81.9,81.22L82.55,102.59L82.77,74.47L83.86,91.71L84.07,86.84L84.29,95.84L84.73,95.09L84.95,87.97L85.6,76.72L85.82,80.47L86.03,77.85L86.47,91.71L86.91,89.84L87.12,87.22L87.56,76.35L87.99,77.85L88.21,80.47L88.43,79.35L88.65,68.48L89.52,92.46L89.74,80.84L89.96,88.34L90.17,84.97L90.39,77.1L90.61,77.47L90.83,95.46L91.7,72.97L91.92,87.59L92.57,74.1L93,77.85L93.22,84.59L93.66,87.59L93.88,71.47L94.09,91.71L94.96,77.1L95.18,84.22L95.62,62.85L95.84,72.6L96.05,86.84L96.71,69.97L96.93,81.22L97.14,66.6L97.8,71.85L98.01,68.1L98.67,84.97L98.89,80.84L99.1,71.85L99.32,83.09L99.76,73.72L99.97,68.1L100.19,83.09L100.63,62.85L100.85,76.72L101.06,76.72L101.28,78.97L101.5,79.35L101.72,74.85L102.81,47.49L103.02,54.98L103.24,57.98L103.46,45.61L103.89,42.24L104.33,57.98L104.55,36.99L104.77,53.86L105.2,51.98L105.42,44.86L105.64,55.36L106.07,49.36L106.29,49.73L106.73,46.36L106.94,49.36L107.16,55.73L108.03,48.23L108.25,52.36L108.69,53.48L108.9,42.24L109.12,53.11L109.56,33.24L109.78,50.11L109.99,48.98L110.21,45.24L110.65,50.48L110.86,45.99L111.08,48.98L111.52,46.36L111.74,51.23L112.17,44.11L112.39,47.49L112.61,49.73L113.26,32.49L113.48,54.98L113.91,38.11L114.35,42.99L114.57,47.11L114.79,47.49L115,53.11L115.22,33.62L115.66,52.36L115.87,45.24L116.09,51.61L116.31,47.11L116.53,37.74L116.96,34.74L117.4,54.98L117.62,46.74L118.27,46.36L118.49,54.23L118.71,53.11L119.58,38.49L119.8,51.61L120.88,44.11L121.1,42.24L121.32,42.61L121.54,44.49L121.76,44.49L121.97,50.11L122.19,40.36L122.84,40.74L123.06,39.24L123.72,51.98L123.93,48.98L124.15,45.99L124.37,50.48L124.8,48.23L125.02,42.61L125.46,56.86L125.68,49.73L125.89,42.61L126.11,48.23L126.33,47.86L126.55,38.86L127.2,47.49L127.42,42.24L127.64,47.11L127.85,45.24L128.07,47.86L128.29,37.36L128.73,46.36L129.16,42.99L129.38,41.49L129.6,39.61L129.81,44.86L130.25,45.24L130.47,37.74L130.69,43.36L130.9,35.12L131.12,44.49L131.34,54.23L131.56,31.74L131.99,48.98L132.21,45.99L132.43,37.36L133.08,41.11L133.3,50.11L133.52,51.98L133.73,45.24L134.17,44.49L134.39,51.61L134.61,50.11L134.82,42.99L135.04,49.36L135.48,40.74L135.7,43.36L135.91,50.86L136.13,48.98L136.35,38.11L136.57,47.11L137,38.86L137.22,40.36L137.44,33.99L137.66,43.74L137.87,37.36L138.09,45.99L138.53,48.61L138.74,47.86L138.96,41.86L139.18,35.49L139.4,36.99L139.62,48.23L139.83,45.99L140.05,34.37L140.49,44.86L140.7,31.37L140.92,32.87L141.58,59.48L141.79,41.11L142.01,41.11L142.45,38.11L142.66,43.74L143.1,47.86L143.54,30.99L143.75,49.36L144.63,43.36L144.84,44.86L145.06,42.99L145.5,36.61L145.93,38.86L146.15,44.49L146.37,39.61L146.59,45.99L146.8,40.36L147.02,44.11L147.24,54.23L147.46,37.74L147.67,44.49L147.89,44.11L148.11,36.24L148.33,46.36L148.55,40.74L148.76,45.99L148.98,49.73L149.2,45.99L149.42,37.36L149.85,47.49L150.07,35.12L150.51,50.48L150.72,44.11L150.94,29.49L152.03,48.61L152.25,47.49L152.47,38.86L152.9,48.98L153.12,41.86L153.34,48.23L153.56,51.23L153.77,39.99L154.43,36.24L154.64,50.86L154.86,37.74L155.08,32.49L155.3,50.11L155.52,30.99L155.95,39.99L156.17,41.86L156.39,41.49L156.6,36.24L156.82,48.98L157.48,47.11L157.69,45.99L157.91,41.49L158.13,55.73L159,37.74L159.22,39.24L159.44,42.99L159.87,36.99L160.09,44.11L160.31,39.61L160.53,47.49L160.74,34.74L160.96,48.61L161.18,39.99L161.4,48.61L162.27,29.87L162.49,42.99L162.92,36.99L163.14,39.24L163.36,50.48L163.79,33.24L164.23,39.24L164.45,51.98L164.66,51.23L164.88,42.61L165.1,48.23L165.32,44.11L165.53,38.11L165.75,44.86L166.19,36.99L166.41,40.74L166.84,45.99L167.28,35.12L167.5,33.24L168.15,54.23L168.37,40.74L168.8,48.61L169.02,43.36L169.24,39.99L169.46,40.74L169.67,51.23L170.11,39.24L170.54,42.24L170.76,45.24L170.98,38.49L171.42,42.61L171.63,44.86L172.29,28.37L172.5,37.36L172.72,41.86L172.94,35.87L173.38,41.86L173.59,41.11L173.81,34.74L174.25,39.24L174.47,42.61L174.9,34.74L175.12,39.99L175.34,47.86L175.55,47.86L175.77,39.61L175.99,39.24L176.21,37.36L176.64,36.24L176.86,56.86L177.08,34.74L177.51,44.86L177.73,49.73L178.39,33.24L178.6,39.24L178.82,45.61L179.04,48.61L179.26,38.11L179.69,42.99L179.91,38.49L180.13,33.99L180.78,46.74L181,36.99L181.87,49.73L182.09,46.74L182.74,33.24L182.96,39.24L183.18,40.74L183.61,33.62L183.83,45.61L184.7,42.24L184.92,48.61L185.14,49.36L185.36,44.86L185.79,42.24L186.01,47.86L186.88,35.49L187.1,36.99L187.32,38.86L187.53,55.73L188.62,28.74L188.84,37.74L189.06,29.49L189.28,47.49L189.49,36.61L189.71,33.99L189.93,41.49L190.37,40.74L190.58,37.36L190.8,34.74L191.02,42.24L191.24,29.49L191.67,42.24L191.89,39.61L192.33,37.74L192.54,44.86L192.76,41.11L192.98,40.36L193.2,41.49L193.41,47.86L194.29,38.86L194.5,41.86L194.72,45.24L194.94,37.74L195.37,38.11L195.59,44.11L196.03,32.49L196.25,36.99L196.46,42.99L196.68,42.61L196.9,37.74L197.12,39.61L197.12,33.99L197.34,29.49L197.55,53.11L197.99,37.36L198.21,38.49L198.64,32.49L198.86,34.74L199.08,38.11L199.95,44.49L200.17,35.87L200.38,41.86L200.6,27.62L200.82,23.12L201.47,47.11L201.69,36.24L201.91,31.37L202.56,48.23L202.78,45.61L203,39.24L203.22,28.37L203.43,45.99L203.65,48.98L203.87,35.87L204.52,37.74L204.74,42.99L205.18,47.86L205.39,36.61L205.61,39.61L205.83,51.98L206.05,53.11L206.27,35.49L206.48,35.49L206.7,39.99L206.92,47.86L207.14,37.74L207.35,42.99L207.57,34.74L207.79,32.49L208.01,34.74L208.23,37.36L208.66,34.74L208.88,39.99L209.1,37.36L209.53,40.36L209.75,35.12L210.4,37.36L210.62,32.49L211.06,42.99L211.27,50.48L211.49,29.49L211.93,45.24L212.15,38.11L212.58,33.62L212.8,44.49L213.45,27.62L213.67,37.36L213.89,45.61L214.11,27.99L214.76,32.87L214.98,36.24L215.85,43.74L216.07,39.99L216.5,26.49L216.72,29.87L216.94,37.36L217.37,32.12L217.59,42.24L217.81,49.73L218.03,42.99L218.24,35.87L218.68,32.12L218.9,38.49L219.12,30.24L219.55,38.49L219.77,36.61L220.2,29.49L220.42,40.74L220.64,36.61L220.86,43.36L221.08,40.74L221.29,44.49L221.51,28.74L221.95,38.86L222.17,36.61L222.38,45.24L222.82,42.61L223.04,21.62L224.13,51.61L224.34,33.62L224.78,30.99L225.21,40.74L225.43,34.37L225.65,40.36L226.3,37.74L226.52,39.61L226.74,52.73L227.17,40.74L227.39,37.74L227.83,39.61L228.26,31.74L228.48,34.37L228.92,35.12L229.14,36.61L229.35,38.86L229.57,28.74L229.79,40.74L230.22,28.37L230.44,37.74L230.66,38.11L230.88,40.36L231.1,29.49L231.75,44.11L231.97,32.12L232.84,40.74L233.06,36.24L233.49,44.49L233.71,33.62L233.93,34.37L234.36,31.74L234.58,32.49L234.8,38.49L235.23,37.74L235.67,45.24L235.89,29.87L236.32,43.36L236.54,33.24L236.76,30.24L236.98,39.24L237.19,30.24L237.85,31.74L238.07,43.74L239.37,29.87L239.59,42.99L239.81,35.12L240.24,38.86L240.46,44.49L240.9,29.87L241.55,31.74L241.77,32.49L241.99,26.49L242.2,35.49L242.42,43.74L243.07,23.5L243.29,40.74L243.95,32.49L244.16,27.62L244.82,40.36L245.25,38.11L245.47,36.24L245.69,37.74L245.91,36.24L246.12,28.74L247,40.74L247.21,38.86L247.65,39.24L247.87,29.49L248.08,34.37L248.3,32.49L248.52,41.86L248.96,41.86L249.17,34.74L249.39,35.87L249.61,30.99L250.04,41.49L250.48,38.11L250.7,44.11L251.13,32.12L251.35,34.74L251.57,37.74L251.79,48.98L252.01,34.37L252.22,36.99L252.44,43.36L252.88,29.49L253.31,37.74L253.53,34.37L253.75,33.24L253.97,27.24L254.62,37.74L254.84,36.61L255.05,34.74L255.27,44.86L255.49,31.74L255.71,29.12L255.93,41.11L256.14,24.62L256.58,39.24L256.8,36.24L257.01,39.61L257.45,35.12L257.67,38.86L257.89,39.99L258.1,42.24L258.32,36.61L258.54,29.87L258.98,37.74L259.41,35.49L259.63,34.74L259.85,27.24L260.06,40.36L260.28,42.24L260.72,29.12L260.94,36.99L261.15,42.99L261.81,32.87L262.02,34.37L262.24,38.86L262.68,28.37L263.11,34.37L263.33,35.49L263.55,37.36L263.77,34.74L263.98,34.74L264.2,30.62L264.86,42.24L265.07,23.5L265.29,34.74L265.73,30.24L265.94,26.12L266.16,41.49L266.82,38.11L267.03,33.62L267.25,26.49L267.69,36.24L267.91,45.99L268.12,32.49L268.78,33.24L268.99,33.99L269.21,25.37L269.43,46.74L270.08,27.99L270.52,29.49L270.74,27.99L270.95,28.74L271.17,38.11L271.39,38.11L271.61,31.37L272.04,39.99L272.26,27.99L273.35,41.49L273.57,39.24L274.44,30.24L274.66,39.24L275.31,29.87L275.53,32.49L275.75,32.87L276.4,32.49L276.84,41.11L277.05,34.37L277.27,28.74L277.71,31.74L277.92,43.36L278.58,30.62L278.8,46.74L279.23,27.62L279.67,32.49L279.88,34.74L280.54,36.61L280.76,23.87L280.97,42.99L282.06,32.49L282.28,36.99L282.5,24.62L282.93,36.99L283.15,35.12L283.37,21.25L283.59,38.11L284.02,26.87L284.24,43.36L284.68,25L284.89,31.74L285.11,38.11L285.55,31.37L285.77,32.87L285.98,36.61L286.2,39.61L286.64,36.24L286.85,35.49L287.29,35.87L287.51,19L287.73,25.37L287.94,34.74L288.38,29.12L288.6,31.37L288.81,33.62L289.03,22.75L289.47,30.62L289.69,31.37L289.9,38.86L290.12,29.87L290.34,34.37L290.56,29.49L290.78,28.37L290.99,29.12L291.21,32.49L291.43,30.99L291.65,34.37L291.86,43.74L292.08,26.87L292.74,30.62L292.95,31.37L293.17,28.37L293.39,36.24L293.61,25L294.04,26.49L294.26,35.12L294.48,23.5L294.91,34.37L295.13,29.87L295.35,23.5L295.57,34.37L295.78,31.74L296,30.24L297.09,33.62L297.31,35.87L297.75,30.24L297.96,36.61L298.18,35.49L298.4,26.49L298.62,39.24L298.83,31.74L299.05,31.74L299.49,26.49L299.71,33.99L299.92,38.86L300.14,31.37L300.36,30.24L300.58,34.37L301.01,30.24L301.23,27.62L301.45,21.62L301.67,29.87L301.88,37.74L302.75,25L302.97,33.99L303.41,28.37L303.63,34.74L303.84,30.62L304.06,35.12L304.5,48.23L304.71,33.24L305.37,28.37L305.59,31.37L305.8,32.12L306.02,37.74L306.24,26.87L306.89,27.62L307.11,34.37L307.33,25.74L307.76,31.74L307.98,30.24L308.42,24.25L308.64,39.99L309.51,27.62L309.72,33.62L309.94,26.12L310.16,33.99L310.38,31.74L310.6,37.36L311.03,25.74L311.25,30.62L311.47,35.49L311.68,28.74L312.12,29.12L312.34,33.99L312.99,28.74L313.21,25L313.43,20.87L313.65,41.11L314.08,25.37L314.52,30.62L314.73,29.49L315.17,28.74L315.39,30.62L315.61,27.24L316.04,30.24L316.26,35.87L316.69,36.24L317.35,24.62L317.57,34.37L317.78,29.87L318,37.36L318.22,37.36L318.44,38.86L318.65,34.37L319.31,36.61L319.53,24.25L319.74,42.99L319.96,45.24L320.18,21.25L320.4,38.49L320.83,35.87L321.05,14.5L321.27,31.74L321.92,31.37L322.14,25.74L322.36,25.74L322.58,39.99L323.23,28.74L323.45,29.87L323.66,34.37L323.88,30.24L324.32,34.74L324.54,32.12L324.97,28.74L325.19,38.86L325.41,25.37L325.84,28.37L326.06,42.24L327.15,32.12L327.37,30.62L327.58,28.37L327.8,32.87L328.02,33.24L328.67,19L328.89,27.62L329.11,30.24L329.55,37.74L329.76,22L330.2,16.75L330.63,38.86L330.85,19L331.29,36.99L331.51,32.49L331.72,15.62L331.94,31.74L332.59,26.87L332.81,30.62L333.03,33.99L333.25,27.62L333.47,32.12L333.68,29.87L333.9,30.62L334.12,28.74L334.34,37.74L334.99,21.25L335.21,31.37L335.43,30.24L335.64,37.36L335.86,36.99L336.08,32.12L336.95,22.37L337.17,29.87L337.39,26.87L337.6,39.61L338.91,19.37L339.13,19.37L339.78,33.62L340,27.24" style="vector-effect: non-scaling-stroke; fill: none; stroke: rgb(31, 119, 180); stroke-opacity: 1; stroke-width: 2px; opacity: 1;"/><g class="points"/></g></g></g><g class="overplot"/><path class="xlines-above crisp" transform="translate(30,30)" d="M-1,290.5H340" style="fill: none; stroke-width: 1px; stroke: rgb(0, 0, 0); stroke-opacity: 0;"/><path class="ylines-above crisp" transform="translate(30,30)" d="M-0.5,0V290" style="fill: none; stroke-width: 1px; stroke: rgb(0, 0, 0); stroke-opacity: 0;"/><g class="overlines-above"/><g class="xaxislayer-above" transform="translate(30,30)"><g class="xtick"><text text-anchor="middle" x="0" y="303" transform="translate(86.91,0)" style="font-family: 'Open Sans', verdana, arial, sans-serif; font-size: 12px; fill: rgb(68, 68, 68); fill-opacity: 1; white-space: pre;">20k</text></g><g class="xtick"><text text-anchor="middle" x="0" y="303" transform="translate(174.03,0)" style="font-family: 'Open Sans', verdana, arial, sans-serif; font-size: 12px; fill: rgb(68, 68, 68); fill-opacity: 1; white-space: pre;">40k</text></g><g class="xtick"><text text-anchor="middle" x="0" y="303" transform="translate(261.15,0)" style="font-family: 'Open Sans', verdana, arial, sans-serif; font-size: 12px; fill: rgb(68, 68, 68); fill-opacity: 1; white-space: pre;">60k</text></g></g><g class="yaxislayer-above" transform="translate(30,30)"><g class="ytick"><text text-anchor="end" x="-1" y="4.199999999999999" transform="translate(0,290)" style="font-family: 'Open Sans', verdana, arial, sans-serif; font-size: 12px; fill: rgb(68, 68, 68); fill-opacity: 1; white-space: pre;">0</text></g><g class="ytick"><text text-anchor="end" x="-1" y="4.199999999999999" transform="translate(0,251.62)" style="font-family: 'Open Sans', verdana, arial, sans-serif; font-size: 12px; fill: rgb(68, 68, 68); fill-opacity: 1; white-space: pre;">0.1</text></g><g class="ytick"><text text-anchor="end" x="-1" y="4.199999999999999" transform="translate(0,213.23)" style="font-family: 'Open Sans', verdana, arial, sans-serif; font-size: 12px; fill: rgb(68, 68, 68); fill-opacity: 1; white-space: pre;">0.2</text></g><g class="ytick"><text text-anchor="end" x="-1" y="4.199999999999999" transform="translate(0,174.85)" style="font-family: 'Open Sans', verdana, arial, sans-serif; font-size: 12px; fill: rgb(68, 68, 68); fill-opacity: 1; white-space: pre;">0.3</text></g><g class="ytick"><text text-anchor="end" x="-1" y="4.199999999999999" transform="translate(0,136.47)" style="font-family: 'Open Sans', verdana, arial, sans-serif; font-size: 12px; fill: rgb(68, 68, 68); fill-opacity: 1; white-space: pre;">0.4</text></g><g class="ytick"><text text-anchor="end" x="-1" y="4.199999999999999" transform="translate(0,98.09)" style="font-family: 'Open Sans', verdana, arial, sans-serif; font-size: 12px; fill: rgb(68, 68, 68); fill-opacity: 1; white-space: pre;">0.5</text></g><g class="ytick"><text text-anchor="end" x="-1" y="4.199999999999999" transform="translate(0,59.7)" style="font-family: 'Open Sans', verdana, arial, sans-serif; font-size: 12px; fill: rgb(68, 68, 68); fill-opacity: 1; white-space: pre;">0.6</text></g><g class="ytick"><text text-anchor="end" x="-1" y="4.199999999999999" transform="translate(0,21.32)" style="font-family: 'Open Sans', verdana, arial, sans-serif; font-size: 12px; fill: rgb(68, 68, 68); fill-opacity: 1; white-space: pre;">0.7</text></g></g><g class="overaxes-above"/></g></g><g class="ternarylayer"/><g class="geolayer"/><g class="layer-above"><g class="imagelayer"/><g class="shapelayer"/></g><g class="pielayer"/><g class="glimages"/><defs id="topdefs-a5e21a"><g class="clips"/></defs><g class="infolayer"><g class="g-gtitle"><text class="gtitle" x="200" y="15" text-anchor="middle" style="font-family: 'Open Sans', verdana, arial, sans-serif; font-size: 17px; fill: rgb(68, 68, 68); opacity: 1; font-weight: normal; white-space: pre;">precision</text></g><g class="g-xtitle"><text class="xtitle" x="200" y="372" text-anchor="middle" style="font-family: 'Open Sans', verdana, arial, sans-serif; font-size: 14px; fill: rgb(68, 68, 68); opacity: 1; font-weight: normal; white-space: pre;">Iterations</text></g><g class="g-ytitle" transform="translate(21,0)"><text class="ytitle" transform="rotate(-90,-8,175) translate(0, 0)" x="-8" y="175" text-anchor="middle" style="font-family: 'Open Sans', verdana, arial, sans-serif; font-size: 14px; fill: rgb(68, 68, 68); opacity: 1; font-weight: normal; white-space: pre;">precision</text></g></g></svg>